<?xml version="1.0" standalone="yes"?>
<svg xmlns="http://www.w3.org/2000/svg" width="910" height="1097">
<path style="fill:#DE541E; stroke:none;" d="M307 17.6412C287.096 23.0447 267.287 44.4198 263.533 65C262.895 68.5011 264.714 71.5938 264.296 75C262.824 86.9761 257.167 97.2012 270.921 104.655C272.424 105.47 275.606 100.815 277.054 100.197C280.048 98.9188 284.85 99.8943 288 100.286C309.852 103.005 329.3 97.6605 351 97.6605C358.899 97.6605 367.434 94.9596 375 98.5725C387.343 104.466 395.867 119.03 403.079 130C405.551 133.761 408.101 138.589 411.379 141.683C413.22 143.421 417.791 143.806 418.654 146.299C419.711 149.351 414.902 151.699 412.999 153.075C406.254 157.953 400.305 161.613 393.604 165.603C391.282 166.985 392.318 171.075 391.177 173.286C388.879 177.741 384.532 182.061 380.83 185.381C375.768 189.922 367.404 195.699 361 197.971C356.761 199.476 351.13 197.336 347.434 200.104C344.005 202.672 345.801 207.452 343.821 210.776C341.495 214.68 336.089 215.301 337.532 221.001C339.672 229.447 345.901 237.799 350.56 245C361.084 261.266 370.617 276.112 386.104 288.363C396.401 296.507 415.671 300.434 421.968 313.015C425.181 319.432 419.813 327.933 418.043 334C416.416 339.579 417.228 355.382 419.742 360.726C421.471 364.401 427.178 367.489 429.985 370.576C438.784 380.252 447.97 389.433 456.958 399C464.189 406.698 469.431 416.014 476.213 424C491.348 441.824 507.936 460.928 518.472 482C523.037 491.13 523.098 500.101 524.174 510C527.084 536.784 523.387 558.805 518.376 585C515.038 602.447 527.401 620.563 522.427 638C520.16 645.949 512.375 652.041 509.373 660C505.009 671.569 503.838 684.265 499.791 696C495.959 707.111 488.081 720.605 482.355 731C479.668 735.878 475.943 741.863 471.816 745.621C468.977 748.206 464.033 749.617 462.272 753.21C460.529 756.769 463.553 760.541 462.146 764.286C456.034 780.542 444.21 795.49 436.259 811C432.572 818.193 429.723 829.128 423.61 834.643C419.858 838.027 412.763 836.512 408.17 839.363C398.742 845.212 391.361 857.688 381 861.498C374.478 863.896 365.518 857.417 358 858.104C336.98 860.025 314.099 865.514 293 860.497C272.391 855.596 255.45 842.841 236 835.065C226.1 831.107 216.515 826.795 206 824.673C199.005 823.261 189.927 823.58 184.228 818.442C178.162 812.973 174.643 796.73 170.752 789C159.249 766.143 149.497 743.682 142.192 719C139.491 709.874 135.857 702.99 136.054 693C136.212 684.981 138.88 677.081 138.981 669C139.033 664.945 136.8 659.378 138.465 655.579C142.749 645.806 155.756 637.892 162.715 630C181.39 608.817 196.216 578.146 223 565.327C234.877 559.643 248.137 556.879 260 551.215C273.709 544.67 287.152 534.205 299 524.743C303.986 520.761 316.193 516.782 318.687 510.895C324.514 497.136 298.87 484.408 291 477.089C285.67 472.133 278.905 463.119 272 460.603C262.636 457.19 248.999 460.06 239 458.815C233.136 458.084 227.943 454.812 222 454.174C199.109 451.714 178.049 458.461 158 468.978C100.661 499.055 65.1078 554.096 40.9105 612C29.675 638.886 20.003 662.23 22.0895 692C23.8964 717.78 32.9156 746.894 42.0656 771C45.2205 779.312 51.9465 787.448 53.8156 796C56.4937 808.253 56.9717 820.928 60.5694 833C66.6037 853.247 77.4781 872.81 86.2145 892C88.4214 896.848 87.0559 902.418 89.6528 906.961C94.2371 914.979 101.681 924.659 107.61 931.829C109.733 934.398 113.52 936.195 115.079 939.142C116.971 942.721 106.596 943.261 112.323 948.009C119.013 953.556 131.887 952.557 140 954.525C149.498 956.83 157.886 962.242 167 965.39C175.451 968.31 184.491 969.348 192.999 971.942C197.902 973.437 201.041 977.631 206.004 979.076C220.902 983.412 236.716 984.215 252 986.428C298.728 993.195 344.93 994.168 392 993.015C415.841 992.431 438.415 997.242 462 991.765C502.339 982.396 537.112 960.453 575 945.015C585.335 940.803 596.947 941.034 607 936.214C619.667 930.142 629.217 919.418 641 912.352C647.226 908.619 657.591 906.524 662.547 901.362C665.946 897.822 661.73 893.25 665.028 889.015C674.869 876.375 689.07 867.113 697.121 853C701.926 844.577 704.301 834.14 707.504 825C717.646 796.054 724.014 766.341 732.721 737C738.576 717.267 747.783 697.468 750.7 677C751.493 671.434 749.432 666.466 749.26 661C748.836 647.542 750.147 633.444 751.089 620C752.495 599.951 756.819 578.005 755.791 558C754.075 524.592 746.333 492.215 743.17 459C740.849 434.635 749.926 408.966 742.856 385C740.228 376.092 734.539 368.578 731.089 360C717.743 326.811 703.634 296.035 685.879 265C677.161 249.76 669.409 230.73 658.582 217.039C651.91 208.604 641.331 204.36 634.465 196C624.336 183.668 620.3 169.207 612.304 156C604.532 143.164 590.344 130.407 578 121.924C572.228 117.958 567.225 119.273 561 117.49C557.455 116.475 554.707 113.854 551 113.225C533.997 110.336 518.438 118.791 503 124.479C495.967 127.07 488.486 135.083 481 135.979C477.983 136.34 470.021 133.529 467 132.397C458.766 129.313 455.672 118.11 452.033 111C446.462 100.116 439.242 90.0587 433.984 79C431.189 73.1217 430.287 66.66 426.648 61.0941C419.813 50.641 401.724 50.7828 391.015 48.7716C385.25 47.6888 384.274 41.0679 378.985 39.0316C371.936 36.3182 363.386 36.752 356 35.196C347.834 33.4758 340.59 29.887 333 26.5756C325.693 23.3875 315.226 15.4081 307 17.6412z"/>
<path style="fill:#ffffff; stroke:none;" d="M306.843 42.0432C302.582 45.2437 299.407 55.3406 296.471 60C293.346 64.9622 282.296 73.5608 282.296 78.9846C282.296 85.4364 299.8 89.3075 305 89.8295C316.153 90.949 323.815 85.1797 334 84.1837C341.84 83.417 350.12 86.2424 358 85.8958C363.537 85.6523 369.575 83.545 375 85.5224C380.592 87.5607 385.198 92.591 390 95.9992C400.041 103.126 408.192 106.05 415.05 117C416.245 118.908 422.807 133.154 425.062 132.369C427.353 131.571 423.868 121.605 423.475 120C421.055 110.136 419.824 99.6578 416.956 90C416.058 86.977 414.368 81.574 411.057 80.3456C407.336 78.9653 408.906 90.3651 403.167 88.6544C399.842 87.6631 398.215 82.5507 396.366 80C391.972 73.939 385.202 65.4745 379.471 60.7277C376.56 58.3163 366.952 55.5139 363.599 58.0316C360.482 60.3716 361.326 66.3643 355.999 66.3643C349.548 66.3643 348.924 55.5992 342.911 55.7516C333.085 56.0005 339.101 73.7932 330.939 73.7932C327.983 73.7932 326.842 70.3575 326.613 67.9993C325.78 59.4072 324.3 48.4607 315.985 43.8002C313.649 42.4911 309.422 40.106 306.843 42.0432M403.172 63.0848C400.997 65.6058 408.372 72.493 410.914 69.9214C413.573 67.2316 405.367 60.5408 403.172 63.0848M425.495 90.6312C422.843 91.2993 423.949 100.057 424.184 102C425.09 109.465 428.467 126.362 432.894 132.375C434.191 134.136 438.405 140.046 440.789 139.248C444.555 137.989 441.731 132.229 440.86 130C437.029 120.194 434.481 109.875 430.811 100C430.13 98.1686 428.531 89.8661 425.495 90.6312M499 149.333C497.235 149.677 493.597 149.47 492.167 150.5C489.972 152.08 490.791 158.388 489.667 161C487.528 165.968 483.108 170.577 479 174C475.661 176.783 469.913 174.508 467.5 179.333C466.396 181.542 471.609 183.376 471.5 186C471.418 187.976 463.776 197.465 462 198.667C458.208 201.232 452.221 198.176 448 198C434.232 197.426 406.488 198.098 401.5 215C400.439 218.595 406.601 215.819 408 215.333C411.05 214.274 426.822 204.369 426.5 212C426.355 215.433 421.373 217.584 419 219.167C409.897 225.235 397.809 225.732 388 230.5C385.235 231.844 375.251 232.45 376.833 237C378.267 241.122 382.898 245.264 386 248.167C398.935 260.267 405.201 260.25 421 253.667C425.131 251.945 438.18 240.802 441.833 245C444.22 247.743 441.134 250.965 439 252.667C433.265 257.238 424.945 261.685 418 264C415.955 264.682 410.161 265.679 411.5 269C417.026 282.705 435.579 275.345 444 270.667C446.086 269.508 453.648 264.835 455.833 266.5C458.394 268.451 453.319 272.756 452 273.833C448.771 276.471 430.182 282.489 433.333 286.667C437.122 291.689 442.095 289.56 447 288.333C456.28 286.013 465.936 284.814 475 281.667C479.703 280.034 485.936 272.092 489.5 280C491.455 284.337 484.934 286.903 482 288.167C473.723 291.731 464.7 293.612 456 295.667C453.771 296.193 447.682 295.433 446.667 298.333C447.065 297.194 456.944 306.537 457.833 309C459.225 312.853 459.014 318.777 462.333 321.667C465.554 324.47 470.447 321.858 474 321.167C484.735 319.079 496.823 316.766 507 312.667C510.328 311.326 517.12 304.136 520.667 308.167C523.32 311.182 519.335 315.022 517 316.667C511.015 320.882 502.979 323.534 496 325.667C486.667 328.518 470.186 327.612 463.167 335.333C460.383 338.395 462.659 343.495 463 347C463.933 356.599 460.08 365.431 464.333 375C467.936 383.105 479.437 395.74 486 402C489.4 405.243 493.756 405.809 496.667 410C502.085 417.802 503.921 430.195 513.167 435.5C517.853 438.189 522.515 429.683 526.667 434.167C533.363 441.398 520.229 440.799 520 446C519.715 452.47 526.332 456.664 529.667 461C533.271 465.686 534.841 472.091 540.333 475.5C548.089 480.314 567.434 461.359 571.5 470C575.571 478.651 550.653 480.441 547.167 484.333C545.297 486.421 553.36 501.49 555.333 503.833C557.658 506.594 570.536 505.505 572.833 502.833C574.291 501.138 572.041 497.524 575 496.833C578.057 496.12 583.118 501.25 583.5 504C585.16 515.954 561.107 509.857 557.5 515.167C556.021 517.344 557 522.458 557 525C557 533.333 557.861 550.216 561.167 557.833C564.492 565.495 584.518 547.257 586.833 559C588.762 568.782 569.454 564.419 565.333 569.167C563.204 571.62 565 576.924 565 580C565 590.03 563.77 605.583 567.167 615C568.439 618.527 572.572 616.008 575 615.333C580.223 613.883 591.791 598.601 593.667 606C597.034 619.284 577.238 620.852 571.333 625.5C568.174 627.987 571.042 632.996 571 636C570.948 639.757 568.157 644.379 567 648C566.497 649.574 565.202 652.337 567.167 653.5C573.46 657.225 580.594 643.577 584 641.167C587.659 638.578 590.541 643.687 589.667 647C586.516 658.938 572.222 659.516 563 662.333C554.048 665.069 545.779 670.197 541.5 679C535.2 691.96 562.875 672.896 561.333 685.667C560.609 691.672 551.836 689.413 549.5 692.5C548.264 694.133 551.437 697.326 551.667 699C551.852 700.353 550.096 701.336 549 701.5C545.559 702.014 540.235 692.869 536.5 696.5C535.171 697.792 535.879 701.246 534.667 703C532.93 705.512 530.185 705.199 528.333 707.167C525.901 709.751 526.63 714.16 524.667 717C523.037 719.358 520.107 719.356 518.5 721.333C516.602 723.669 517.64 727.697 514.833 729.667C513.682 730.474 510.215 729.481 509.667 730.5C509.051 731.643 513.287 733.634 514 734C516.762 735.419 533.483 736.238 531.5 740.833C530.238 743.759 526.071 741.201 524 741C518.838 740.498 510.874 739.142 506 739.5C503.154 739.709 502.797 742.897 501.833 745C499.382 750.348 491.167 761.26 491.5 767C491.7 770.454 496.402 771.112 499 771.833C506.518 773.922 516.034 775.017 523 778.5C525.057 779.528 532.228 784.54 529 787.667C527.533 789.088 518.75 781.924 517 781C512.39 778.567 508.783 782.465 504 782C499.583 781.571 496.203 778.501 492 777.333C489.985 776.774 487.138 775.746 485.333 777.333C475.657 785.849 470.848 803.103 485 809C489.164 810.735 506.887 807.434 503.167 817C498.944 827.859 482.919 816.53 477 812.667C474.585 811.09 471.265 807.294 468.333 810.167C465.504 812.939 456.635 832.556 458.5 835.833C460.233 838.879 476.242 840.861 474.5 844.833C472.604 849.157 463.816 850.436 460 848.5C458.017 847.494 455.931 843.011 453.167 844.5C448.858 846.82 452.34 855.496 449 859C444.731 863.479 431.848 871.969 426 874C419.654 876.203 412.312 873.388 405 876.333C391.05 881.952 378.149 885.527 363 887C358.591 887.429 354.413 885.046 350 886.333C345.303 887.703 338.196 888.408 334 890.833C331.064 892.53 330.797 896.799 327 897.333C318.543 898.524 306.101 889.696 298 887.333C286.868 884.087 278.691 887.039 268 886C255.571 884.792 245.742 876.106 234 873.333C230.25 872.448 227.41 874.902 224 874.333C216.584 873.097 203.644 865.095 198 860C192.89 855.387 187.317 848.711 180 848C174.038 847.42 171.338 856.599 165.5 856C164.677 855.916 163.239 849.885 162.833 849C160.111 843.06 156.482 843.716 153.5 839C152.472 837.374 152.495 832.333 150 832.333C147.032 832.333 143.92 848.586 141.333 846C140.383 845.049 142.431 843.961 142.333 842.833C141.502 833.187 147.083 828.429 148 819C149.114 807.542 146.331 792.464 139.667 783C137.157 779.437 133.022 778.022 130 775C128.078 773.078 126.91 768.829 124.833 767.5C119.555 764.122 119.132 789.005 111 785.5C108.046 784.227 111.615 774.646 112.167 772C114.425 761.16 124.899 752.172 111 743.167C99.7065 735.85 103.844 768.829 92 762.167C81.4369 756.225 99.2342 743.233 100.833 738C102.392 732.9 98.4337 728.66 97.3333 724C96.331 719.755 97.7384 715.228 96.6667 711C93.1159 696.994 87.2715 728.4 82.5 722.833C80.6161 720.635 83.1579 714.442 83.6667 712C85.8867 701.344 84.0037 691.467 85.1667 681C86.4124 669.788 107.049 667.371 108.333 655.167C108.52 653.398 98.498 649.233 97.6667 650.5C96.4713 652.321 99.736 654.707 96 655.833C92.2425 656.967 87.5547 652.835 89.5 649C91.724 644.616 95.2718 646.547 99 645.667C105.999 644.014 125.006 640.214 123.667 630C122.817 623.52 105 635.803 105 626.333C105 622.086 116.307 621.524 119 621C130.396 618.784 136.112 616.562 145 608.833C147.537 606.627 153 602.738 153 599C153 595.559 149.362 596.126 147 595.667C136.164 593.56 132.083 596.646 122 599.167C119.934 599.683 114 599.939 114 596.333C114 594.141 120.368 596.447 121.667 595.5C125.864 592.44 126.417 586.006 133 585C138.448 584.168 146.694 585.507 152 586.833C153.985 587.33 157.933 589.091 159.833 587.5C161.562 586.053 159.38 583.087 160.5 581.167C162.712 577.374 173.566 575.355 171.833 569.167C171.489 567.935 151.754 569.697 159 562.167C164.401 556.554 177.946 559.98 185 559C190.007 558.305 194.936 553.23 198.333 549.833C199.9 548.267 203.852 546.232 204.333 544C205.124 540.329 198.993 541 197 541C189.832 541 180.822 542.876 174 541.833C171.037 541.381 165.54 538.92 167.5 535C169.926 530.147 178.746 532 183 532C189.941 532 196.145 531.024 203 532.167C210.855 533.476 214.857 537.5 223 534.333C225.791 533.248 232.177 531.903 233.5 528.833C234.905 525.575 228.758 522.758 227 521C224.528 518.528 223.024 515.307 220 513.333C214.655 509.844 205.901 512.288 200 511.333C197.889 510.992 196.383 509.095 197.5 507C199.695 502.885 210.069 502.618 214 503C227.723 504.334 240.068 534.171 252.833 521.667C255.889 518.674 251.096 515.056 249.167 513C241.605 504.942 235.799 505.537 227 501C225.076 500.008 224.468 498.839 226 497C235.05 486.14 252.475 504.981 258 510.167C259.743 511.802 261.259 515.628 264 515.667C266.585 515.703 269.677 511.963 272 510.833C275.79 508.991 286.888 511.686 282.667 504C280.24 499.582 271.927 501.522 272.333 502.667C271.522 500.382 274.233 496.616 273.833 494C272.328 484.145 262.34 469.37 251 470C246.445 470.253 243.476 474.503 239 475C196.597 479.711 148.305 484.067 115.333 515.333C95.6044 534.042 84.7508 561.165 72.8333 585C67.7515 595.164 62.3098 605.272 56.5 615C54.5377 618.286 50.8973 620.939 50.3333 625C49.7805 628.981 54.6435 629.701 54.5 633C54.207 639.739 41.8249 644.515 41 653C40.2255 660.967 38.9996 674.362 41.3333 682C42.4607 685.69 49.7407 691.538 49.5 694.667C49.4086 695.855 46.6422 694.502 46.1667 696.167C45.2519 699.369 49.5325 705.084 50.6667 708C53.9152 716.353 55.8606 725.232 60.5 733C62.2148 735.871 65.215 737.81 66.5 741C70.9036 751.933 72.723 767.225 75.6667 779C86.2056 821.156 84.5331 865.069 109.667 902C115.445 910.49 119.044 918.572 128 924.667C131.4 926.981 135.676 927.163 139 929.333C141.296 930.832 143.149 934.104 146 934.667C149.641 935.385 150.964 930.405 152.167 928C154.624 923.085 161.928 908.161 169 910.167C172.591 911.185 171.811 917.552 169.667 919.833C167.848 921.768 165.266 920.136 163.333 921.5C154.54 927.707 153.38 940.291 163 944.833C167.84 947.119 191.119 949.292 185.833 937.167C185.954 937.445 180.033 944.493 178.5 936C177.774 931.98 185.388 920.417 190 922.5C199.259 926.682 182.916 947.297 184 954C184.82 959.069 199.372 962.51 204 963.667C211.993 965.665 220.804 967.658 229 968C232.896 968.162 237.765 965.336 241 965.833C249.393 967.125 255.584 973.248 265 968C268.46 966.071 266.086 962.984 266.5 960C267.499 952.805 268.236 943.866 273.167 938C275.152 935.638 280.627 931.314 284 933.5C285.91 934.738 285.292 937.348 283.833 938.667C282.213 940.131 279.719 939.614 278.167 941.167C274.439 944.894 272.252 956.785 274.167 961.833C274.895 963.754 277.356 963.825 278.167 965.667C279.415 968.503 276.709 971.089 281 972.667C290.101 976.013 303.357 972.062 313 973C315.849 973.277 321.215 975.65 323.5 972.667C325.747 969.733 324.317 963.258 324 960C323.404 953.868 324.763 947.936 326 942C326.757 938.367 330.329 932.246 335 933.167C339.572 934.068 339.543 939.235 336.833 942C334.691 944.186 334.703 940.943 333.167 941.667C329.674 943.31 332.24 951.25 331.667 954C330.998 957.208 327.333 961.177 327.333 964C327.333 969.558 337.322 974.573 342 974.833C351.498 975.361 357.98 972.546 367 970.667C369.843 970.074 375.285 972.832 376.667 969C378.477 963.979 373.429 957.641 372.333 953C370.845 946.698 372.798 939.211 373.833 933C374.341 929.957 374.412 922.333 379 922.333C387.337 922.333 382.358 937.315 382 941C380.6 955.405 391.404 974.816 408 970.667C414.323 969.086 412.925 964.032 411.667 959C409.873 951.824 402.397 927.474 414 923.667C416.598 922.814 423 928.409 423 931C423 931.958 417.375 934.139 417 938C416.182 946.411 417.831 963.066 425 968.667C427.849 970.892 431.895 971.479 435 973.333C441.287 977.088 446.33 980.265 454 978.667C460.595 977.293 459.367 968.258 466 965.667C468.546 964.672 473.122 966.32 476 966C481.842 965.351 503.906 955.315 503.5 948C503.263 943.741 495.648 938.934 493 936C485.478 927.667 480.973 918.636 478.167 908C477.147 904.138 474.708 893.986 480 892.167C484.434 890.642 493.094 894.26 494.333 899C495.56 903.692 487.832 898.316 486.5 899.5C483.616 902.064 487.699 914.161 489 917C492.311 924.224 505.255 941.636 514 942C520.282 942.262 528.208 936.678 534 934.667C539.039 932.917 549.945 930.038 552.5 925C555.238 919.601 544.31 915.241 541 912.667C529.908 904.04 517.048 890.08 531 877C533.882 874.298 538.689 875.528 538.5 880C538.301 884.71 532.735 887.234 533 892C533.287 897.173 538.601 899.884 542 903C548.959 909.379 559.969 918.115 570 917C577.691 916.145 584.599 911.184 592 909.333C596.066 908.317 613.175 904.303 614.333 899.833C615.401 895.717 605.946 896.653 604 896.167C594.133 893.7 583.227 889.329 576 882C573.797 879.766 568.609 874.777 571.333 871.167C572.23 869.979 580.922 865.785 581.667 866.333C583.357 867.579 580.796 872.161 581 874C581.362 877.254 584.363 879.165 587 880.667C599.109 887.562 619.261 895.106 633 889C640.155 885.82 647.194 880.232 654 876.167C661.134 871.906 674.85 862.822 676.667 854C677.315 850.85 673.059 850.305 671 851.5C668.613 852.886 668.582 856.133 666 857.5C663.278 858.941 659.825 857.118 657 857C645.513 856.521 633.95 853.609 624 847.667C619.327 844.876 608.238 833.136 613.167 827C615.567 824.011 619.762 824.717 621.5 828C622.837 830.526 621.512 833.481 623.333 836C631.901 847.848 650.157 848 663 848C668.178 848 678.389 849.53 681.5 844C685.45 836.978 666.51 833.087 662 831.333C642.19 823.63 621.837 812.996 605 799.667C600.783 796.328 591.328 785.903 596.167 780C599.159 776.35 606.226 777.691 608 782C609.555 785.777 604.082 785.273 606 789C609.019 794.865 615.826 797.479 621 801C634.544 810.217 648.919 817.092 664 823.167C668.228 824.87 683.022 831.551 687 829.5C690.338 827.779 689.832 822.922 691.333 820C693.537 815.712 698.267 806.919 695.5 802C692.975 797.512 682.657 795.396 678 794.167C667.114 791.294 655.625 785.915 646 780.167C642.845 778.283 628.918 769.209 631.333 765C634.817 758.928 642.978 766.694 646 768.667C656.343 775.418 669.773 780.789 682 783.167C686.607 784.062 693.788 787.313 695.833 781C698.948 771.386 697.231 757.759 695.333 748C694.751 745.006 696.076 740.366 693 738.5C684.105 733.105 670.794 737.19 661 734.333C650.645 731.313 642.417 727.187 634 720.667C631.994 719.113 626.25 715.05 627.5 712C629.638 706.783 640.633 713.994 643 716C653.143 724.594 680.291 735.25 690.667 722.667C693.116 719.696 691.294 716.493 688 715.333C673.43 710.203 659.37 704.788 645 699C641.605 697.633 632.444 693.741 634 689C636.198 682.302 644.73 688.107 648 689.833C656.652 694.4 670.523 702.552 680 704C685.075 704.775 692.06 707.955 692.833 700C693.091 697.344 693.698 688.032 691.833 686.167C688.279 682.612 676.762 685.463 672 685C660.593 683.891 646.783 676.737 637 671.167C632.249 668.461 615.392 658.594 619.5 651C622.837 644.832 634.085 656.981 637 659.167C651.199 669.816 674.13 680.25 689 666C690.783 664.291 694.76 661.496 695.333 659C696.07 655.788 676.674 657.26 674 657C664.891 656.114 656.662 650.221 648 647.333C638.485 644.162 627.263 642.655 619 636.667C616.072 634.545 606.431 624.824 608.5 621C611.287 615.848 620.299 622.965 622.833 625.333C634.702 636.424 657.728 642.443 674 645.833C677.594 646.582 692.794 649.662 694.333 643.833C695.908 637.872 679.37 635.395 676 634.833C670.662 633.944 666.684 630.508 662 628.167C652.932 623.633 643.804 620.591 635 615.333C631.185 613.055 623.041 609.645 621.667 605C619.431 597.441 633.771 603.064 636 604.333C643.252 608.463 650.843 610.79 658 614.667C659.03 615.224 664.341 618.542 665.333 616.5C666.031 615.063 663.159 612.72 663.333 611C663.563 608.74 666.667 608.168 666.667 606C666.667 603.177 656.391 600.497 654 599.667C643.863 596.147 635.985 587.323 627 581.333C624.896 579.931 619.015 577.167 619.667 574C620.859 568.211 632.371 571.494 635 574C637.774 576.644 639.086 580.332 642 583C653.188 593.243 670.443 598.943 685 601.167C689.183 601.806 699.4 606.266 702.833 602.833C704.812 600.855 705.856 579.835 703.833 578.5C698.321 574.862 688.186 583.004 683 582.5C672.33 581.463 660.72 573.352 651 569.167C647.504 567.661 629.621 563.027 632.5 557.167C634.018 554.076 642.364 554.105 645 555.167C653.658 558.654 662.067 564.561 671 567.167C676.261 568.701 681.636 567.479 687 568C692.066 568.492 701.084 570.572 702.667 563C702.914 561.816 702.489 560.339 701 560.667C691.474 562.762 686.262 561.344 677 558C669.979 555.465 663.274 552.051 656 550.333C642.454 547.135 628.802 548.529 617 540.333C611.162 536.279 601.919 523.941 604.167 516C605.391 511.675 614.987 523.264 616 525C625.698 541.625 640.26 537.613 657 541.333C666.637 543.475 675.665 548.759 685 552C690.061 553.757 706.554 552.987 708.667 547C711.144 539.981 702.051 541 698 541C683.832 541 662.133 538.756 650 530.667C646.696 528.464 645.212 524.521 642 522.333C639.451 520.597 628 520.861 628 517.167C628 515.852 631.659 517.172 632.5 516.5C636.39 513.388 636.914 511.124 643 514.167C648.499 516.916 651.369 523.164 657 525.667C667.768 530.453 680.733 529.643 692 531.833C696.265 532.663 709.521 534.323 711.667 529C712.57 526.76 712.775 521.031 710 520.167C707.119 519.269 703.131 521.956 700 522C694.647 522.074 690.181 519.432 685 519C675.9 518.242 670.717 523.732 661 518.333C658.059 516.699 648.667 515.418 648.667 511C648.667 504.176 660.284 506.266 664 506.833C675.66 508.615 688.152 506.835 700 507C703.507 507.049 708.699 509.417 712 507.5C715.103 505.698 716.969 495.028 713.833 492.833C708.545 489.131 700.696 498.717 694.333 490.833C687.213 482.01 712.61 485.294 714.5 482C716.92 477.783 711.806 466.195 712.167 461C712.317 458.84 714.547 456.167 713.5 454C711.014 448.857 704.549 458.857 702 460.167C690.404 466.126 676.431 469.511 664 474C660.905 475.117 649.203 479.027 648.167 473C647.064 466.582 662.244 467.91 666 465.667C683.599 455.156 712 452.645 712 428C712 425.226 712.161 417.335 710.5 415.167C707.011 410.611 694.815 426.857 692.333 429.167C687.665 433.513 684.141 440.046 679 443.667C664.774 453.685 643.369 451.409 627 453C621.009 453.582 614.991 454.418 609 455C608.267 455.071 604 455.398 604 454.167C604 451.747 609.412 450.819 611 450.333C618.712 447.977 626.239 448.176 634 446.667C647.785 443.986 661.537 443.251 674 436.5C682.098 432.114 688.924 421.73 695 415C699.034 410.531 708.654 405.723 708 399C707.811 397.061 706.604 392.378 704 392.5C699.21 392.725 690.373 404.691 686 407.667C672.574 416.804 654.831 425.203 640 432C634.547 434.5 615.117 444.682 615.333 430C615.373 427.326 618.968 426.59 621 426.167C628.776 424.547 635.457 420.571 643 419C660.857 415.28 681.495 403.946 691.667 389C695.319 383.633 700.79 373.948 698.667 367C697.774 364.079 693.505 353.333 690 353.333C685.209 353.333 683.204 365.93 680 368.833C674.053 374.223 665.336 380.638 658 384C654.37 385.664 649.242 386.215 646 388.5C642.417 391.026 645.956 395.239 642 397.5C636.609 400.581 630.709 397.034 625 399.333C623.74 399.841 620.688 402.161 619.333 401.333C617.735 400.357 620.68 397.049 619.5 395.333C617.853 392.937 613.72 393.903 613.5 390C613.084 382.621 630.278 385.787 636 384.833C653.155 381.974 672.835 367.526 680.167 352C683.506 344.929 688.929 336.34 681.833 329C677.373 324.386 663.857 343.197 660 347C646.535 360.278 623.589 365.804 606 371.667C600.586 373.471 590.654 377.745 585 375.667C579.261 373.557 584.506 369.207 588 368.333C608.707 363.156 631.151 358.849 647 343C651.705 338.295 649.373 331.854 653.333 327.167C658.609 320.922 671.528 306.213 662.667 297.167C660.649 295.107 657.863 296.507 657.167 299C656.496 301.4 658.591 303.619 657.5 306C654.641 312.238 646.482 315.197 641 318.167C627.523 325.467 613.22 331.528 598 335.333C594.168 336.291 577.794 344.598 575.5 339C573.268 333.555 588.568 329.477 592 328.333C611.212 321.929 627.908 317.883 643 303C645.681 300.356 655.826 291.549 653.5 287.333C651.601 283.891 646.324 277.382 642 278C635.399 278.943 634.291 288.739 629 291.5C623.709 294.26 614.855 291.114 609 292.333C599.808 294.248 591.387 299.423 583 303.5C578.464 305.705 559.239 317.17 557.333 311C555.645 305.533 563.128 306.552 563.833 302.833C564.34 300.16 560.499 298.763 561.5 296C563.157 291.428 571.163 291.506 575 290.333C588.84 286.104 605.839 286.947 618 278.333C623.166 274.674 635.615 260.492 633 254C631.672 250.703 624.419 237.081 621 236.333C616.525 235.354 613.821 242.663 611 244.833C606.243 248.492 597.552 250.172 592 253.333C589.411 254.807 578.488 264.037 575.333 261.333C575.563 261.53 585.725 248.706 587.167 247C593.596 239.392 610.957 228.724 612 218C612.393 213.958 608.6 208.799 607.333 205C606.074 201.223 604.549 190.333 599 190.333C596.411 190.333 594.415 194.243 593 196C587.888 202.346 584.143 209.286 579.667 216C570.949 229.077 564.002 250.055 548 256.5C543.444 258.335 537.769 256.207 533 257.333C528.279 258.448 514.187 264.441 510.167 260.667C506.154 256.9 521.754 249.872 525 248.5C532.367 245.387 540.325 243.58 547 238.667C556.958 231.337 564.311 218.112 571.333 208C574.036 204.108 581.749 193.795 579.167 189C577.357 185.64 572.221 183.488 569 181.833C565.846 180.213 560.622 175.95 557 176C552.951 176.056 550.948 181.549 548 183.667C542.982 187.271 537.64 189.752 533 194C524.654 201.641 518.63 211.759 507 214.667C498.865 216.701 502.242 206.556 498 206C490.691 205.041 481.792 212.591 475 214.667C472.537 215.419 468 215.569 468 212C468 204.992 482.076 204.65 487 202.667C502.084 196.591 518.608 188.843 531 178C533.821 175.531 541.859 171.421 541.667 167C541.515 163.505 534.493 161.627 532 160C522.288 153.66 511.309 146.94 499 149.333M411.014 172.866L411.986 173.532L411.014 172.866M383.639 203.806L384.361 205.194L383.639 203.806M718.973 374.3L720.318 376.559L718.973 374.3z"/>
<path style="fill:#DE541E; stroke:none;" d="M259.643 498.357C256.202 500.266 261.853 510.099 265.272 508.654C269.948 506.678 264.52 495.651 259.643 498.357z"/>
<path style="fill:#ffffff; stroke:none;" d="M266.722 535.083L266.278 536.917L266.722 535.083z"/>
<path style="fill:#DE541E; stroke:none;" d="M151.345 569.895L155.655 571.196L151.345 569.895z"/>
<path style="fill:#ffffff; stroke:none;" d="M192 579L196 575L192 579M683.255 611.132C680.855 614.145 690.657 623.824 694.248 619.385C697.459 615.417 685.346 608.507 683.255 611.132M163.849 612.06L160.383 619.079L163.849 612.06M739.324 625.552L739.676 627.108L739.324 625.552z"/>
<path style="fill:#DE541E; stroke:none;" d="M101.806 631.722L102.972 632.361L101.806 631.722z"/>
<path style="fill:#ffffff; stroke:none;" d="M692.639 674.806L693.361 676.194L692.639 674.806M56 760C56.0099 772.873 62.8695 768.882 56 760z"/>
<path style="fill:#DE541E; stroke:none;" d="M123.414 782.137C117.417 785.315 119.023 799.391 117.736 805C117.05 807.991 114.969 810.149 113.992 812.977C113.386 814.732 113.616 817.28 116.133 816.503C123.678 814.175 128.335 792.919 128.578 786.044C128.672 783.367 126.172 780.675 123.414 782.137z"/>
<path style="fill:#ffffff; stroke:none;" d="M195.156 834.938L197.674 836.102L195.156 834.938M236.067 859.157C234.39 860.536 237.464 863.61 238.843 861.933C239.991 860.538 237.463 858.009 236.067 859.157z"/>
<path style="fill:#DE541E; stroke:none;" d="M445.274 915.786C441.873 917.172 441.032 922.846 440.465 926C438.43 937.303 440.868 947.188 446.424 957C448.267 960.255 453.126 969.215 458.381 965.799C462.226 963.298 455.992 955.323 454.495 953C446.539 940.65 452.684 935.208 451.999 923.001C451.794 919.346 450.34 913.722 445.274 915.786M253 919.256C244.753 922.046 238.501 940.326 236.676 948C236.17 950.129 233.419 959.786 238.106 959.079C245.21 958.007 246.339 940.221 249.969 935.059C252.111 932.013 256.537 931.277 257.964 927.853C259.379 924.457 258.08 917.537 253 919.256M211.955 945.06C208.246 945.711 197.985 959.389 206.055 958.534C211.459 957.961 217.452 944.096 211.955 945.06z"/>
</svg>
